<svg xmlns="http://www.w3.org/2000/svg" width="66.666" height="50" viewBox="0 0 66.666 50">
  <path id="email" d="M60.416,59.882H6.25A6.257,6.257,0,0,0,0,66.132v37.5a6.257,6.257,0,0,0,6.25,6.25H60.416a6.257,6.257,0,0,0,6.25-6.25v-37.5a6.257,6.257,0,0,0-6.25-6.25Zm0,4.167a2.071,2.071,0,0,1,.8.161L33.333,88.375,5.451,64.21a2.074,2.074,0,0,1,.8-.161Zm0,41.667H6.25a2.085,2.085,0,0,1-2.083-2.083V68.612l27.8,24.095a2.086,2.086,0,0,0,2.73,0L62.5,68.612v35.02A2.085,2.085,0,0,1,60.416,105.715Z" transform="translate(0 -59.882)"/>
</svg>
