<svg xmlns="http://www.w3.org/2000/svg" width="56.39" height="55" viewBox="0 0 56.39 55">
  <path id="iconmonstr-github-1" d="M28.2,0a28.2,28.2,0,0,0-8.912,54.95c1.407.261,1.863-.613,1.863-1.356V48.345c-7.843,1.706-9.476-3.327-9.476-3.327-1.283-3.259-3.132-4.126-3.132-4.126-2.559-1.75.2-1.713.2-1.713a5.919,5.919,0,0,1,4.321,2.906c2.514,4.309,6.6,3.064,8.2,2.343a5.982,5.982,0,0,1,1.79-3.769C16.788,39.943,10.2,37.525,10.2,26.724a10.913,10.913,0,0,1,2.9-7.568,10.142,10.142,0,0,1,.275-7.462s2.368-.757,7.756,2.89a26.724,26.724,0,0,1,14.119,0C40.641,10.937,43,11.694,43,11.694a10.132,10.132,0,0,1,.277,7.462,10.883,10.883,0,0,1,2.9,7.568c0,10.829-6.6,13.214-12.873,13.912a6.739,6.739,0,0,1,1.934,5.221v7.737c0,.75.451,1.631,1.882,1.353A28.2,28.2,0,0,0,28.2,0Z"/>
</svg>
