<svg id="instagram" xmlns="http://www.w3.org/2000/svg" width="56.989" height="57" viewBox="0 0 56.989 57">
  <path id="Path_29" data-name="Path 29" d="M57.293,16.758a20.828,20.828,0,0,0-1.325-6.915,14.6,14.6,0,0,0-8.34-8.34A20.881,20.881,0,0,0,40.714.178C37.662.033,36.694,0,28.955,0S20.247.033,17.207.167a20.834,20.834,0,0,0-6.915,1.325,13.908,13.908,0,0,0-5.056,3.3A14.034,14.034,0,0,0,1.952,9.832,20.884,20.884,0,0,0,.628,16.747C.483,19.8.449,20.767.449,28.506s.033,8.707.167,11.747a20.827,20.827,0,0,0,1.325,6.915,14.6,14.6,0,0,0,8.34,8.34A20.884,20.884,0,0,0,17.2,56.833c3.04.134,4.009.167,11.747.167s8.707-.033,11.747-.167a20.823,20.823,0,0,0,6.915-1.325,14.58,14.58,0,0,0,8.34-8.34,20.9,20.9,0,0,0,1.325-6.915c.134-3.04.167-4.009.167-11.747S57.427,19.8,57.293,16.758ZM52.16,40.03a15.623,15.623,0,0,1-.98,5.289,9.455,9.455,0,0,1-5.412,5.412,15.679,15.679,0,0,1-5.289.98c-3.006.134-3.908.167-11.513.167s-8.518-.033-11.514-.167a15.615,15.615,0,0,1-5.289-.98A8.771,8.771,0,0,1,8.89,48.6a8.862,8.862,0,0,1-2.127-3.274,15.681,15.681,0,0,1-.98-5.289c-.134-3.006-.167-3.909-.167-11.514s.033-8.518.167-11.513a15.615,15.615,0,0,1,.98-5.289A8.664,8.664,0,0,1,8.9,8.451a8.848,8.848,0,0,1,3.274-2.127,15.689,15.689,0,0,1,5.289-.98c3.006-.134,3.909-.167,11.513-.167s8.518.033,11.514.167a15.623,15.623,0,0,1,5.289.98,8.765,8.765,0,0,1,3.274,2.127,8.86,8.86,0,0,1,2.127,3.274,15.687,15.687,0,0,1,.98,5.289c.134,3.006.167,3.908.167,11.513S52.294,37.024,52.16,40.03Zm0,0" transform="translate(-0.449 0)"/>
  <path id="Path_30" data-name="Path 30" d="M139.592,124.5a14.643,14.643,0,1,0,14.643,14.643A14.646,14.646,0,0,0,139.592,124.5Zm0,24.141a9.5,9.5,0,1,1,9.5-9.5A9.5,9.5,0,0,1,139.592,148.641Zm0,0" transform="translate(-111.086 -110.637)"/>
  <path id="Path_31" data-name="Path 31" d="M369.286,92.02a3.419,3.419,0,1,1-3.419-3.418A3.419,3.419,0,0,1,369.286,92.02Zm0,0" transform="translate(-322.141 -78.736)"/>
</svg>
