<svg xmlns="http://www.w3.org/2000/svg" width="59.24" height="50" viewBox="0 0 59.24 50">
  <path id="medium" d="M19.737,49.885a1.747,1.747,0,0,1-2.71,1.716L1.654,43.917a2.792,2.792,0,0,1-1.172-1.1A2.918,2.918,0,0,1,0,41.278V3.692C0,2.29.842,1.656,2.745,2.6l16.893,8.442c.244.244.064-1.434.1,38.84Zm2.115-35.347L39.506,43.092l-17.654-8.77Zm37.388.595V49.885a1.9,1.9,0,0,1-.464,1.335,1.612,1.612,0,0,1-1.256.511,3.12,3.12,0,0,1-1.553-.429L41.389,44.047Zm-.1-3.957q0,.1-8.479,13.83T40.728,41.08l-12.892-20.9L38.546,2.8a2.005,2.005,0,0,1,2.579-.726l17.886,8.9a.209.209,0,0,1,.131.2Z" transform="translate(0 -1.873)"/>
</svg>
