<svg id="pinterest" xmlns="http://www.w3.org/2000/svg" width="40.624" height="50" viewBox="0 0 40.624 50">
  <g id="Group_32" data-name="Group 32">
    <path id="Path_28" data-name="Path 28" d="M69,0C55.292,0,48,8.782,48,18.357c0,4.441,2.481,9.979,6.453,11.735.6.272.931.156,1.066-.4.119-.425.641-2.472.894-3.438a.884.884,0,0,0-.213-.869,11.387,11.387,0,0,1-2.366-6.91c0-6.678,5.31-13.163,14.344-13.163,7.813,0,13.279,5.075,13.279,12.335,0,8.2-4.341,13.879-9.982,13.879-3.122,0-5.447-2.45-4.71-5.481.891-3.61,2.638-7.491,2.638-10.094,0-2.334-1.319-4.266-4.013-4.266-3.178,0-5.756,3.147-5.756,7.372a10.51,10.51,0,0,0,.95,4.5s-3.144,12.7-3.728,15.073c-.988,4.016.134,10.519.231,11.079a.329.329,0,0,0,.6.153c.309-.406,4.11-5.828,5.175-9.747.388-1.428,1.978-7.219,1.978-7.219,1.047,1.891,4.069,3.475,7.288,3.475,9.575,0,16.494-8.416,16.494-18.86C88.593,7.491,80.024,0,69,0Z" transform="translate(-48.004)"/>
  </g>
</svg>
